<svg xmlns="http://www.w3.org/2000/svg" xmlns:xlink="http://www.w3.org/1999/xlink" viewBox="0 0 379.97 384.32"><defs><style>.cls-1{fill:url(#名称未設定グラデーション);}.cls-2{fill:#fff;}</style><linearGradient id="名称未設定グラデーション" x1="-112.43" y1="651.38" x2="-112.43" y2="589.37" gradientTransform="matrix(7.35, 0, 0, -7.44, 1016.79, 4806.5)" gradientUnits="userSpaceOnUse"><stop offset="0" stop-color="#f9aa4b"/><stop offset="1" stop-color="#f7931a"/></linearGradient></defs><title>icon-bitcoin</title><g id="レイヤー_2" data-name="レイヤー 2"><g id="レイヤー_1-2" data-name="レイヤー 1"><g id="g16"><g id="coin"><path class="cls-1" d="M374.28,238.65C348.9,341.59,245.81,404.24,144,378.57S-19.7,248.64,5.69,145.7,134.15-19.92,235.92,5.75,399.66,135.7,374.28,238.65Z"/></g><path id="symbol" class="cls-2" d="M273.73,164.79c3.78-25.57-15.47-39.31-41.79-48.48l8.54-34.64-20.85-5.25-8.31,33.72c-5.48-1.38-11.11-2.68-16.7-4L203,72.21,182.15,67l-8.54,34.62c-4.54-1-9-2.08-13.31-3.16l0-.11-28.75-7.26L126,113.57s15.47,3.58,15.14,3.81c8.44,2.13,10,7.78,9.71,12.26l-23.39,94.89c-1,2.59-3.65,6.49-9.55,5,.21.31-15.15-3.83-15.15-3.83L92.43,249.84l27.13,6.84c5,1.28,10,2.62,14.86,3.88l-8.63,35,20.82,5.25,8.54-34.66c5.69,1.56,11.21,3,16.61,4.36L163.26,305l20.85,5.25,8.63-35c35.55,6.8,62.28,4.06,73.53-28.46,9.07-26.18-.45-41.28-19.15-51.13,13.62-3.18,23.88-12.24,26.62-31ZM226.1,232.34c-6.44,26.18-50,12-64.16,8.48l11.45-46.41C187.51,198,232.83,205,226.1,232.34Zm6.45-67.93c-5.88,23.82-42.16,11.72-53.93,8.75L189,131.06C200.77,134,238.67,139.57,232.54,164.41Z"/></g></g></g></svg>